<?xml version="1.0" encoding="UTF-8" standalone="no"?>
<!-- Created with Inkscape (http://www.inkscape.org/) -->

<svg
   width="64"
   height="64"
   viewBox="0 0 64 64"
   version="1.1"
   id="svg1"
   xml:space="preserve"
   xmlns="http://www.w3.org/2000/svg"
   xmlns:svg="http://www.w3.org/2000/svg"><defs
     id="defs1" /><g
     id="layer1"
     style="display:inline"><path
       id="path_heart"
       style="fill:#ffebd8;fill-opacity:1;stroke:none;stroke-width:0.984448;stroke-linecap:round;stroke-opacity:0.435484"
       d="M 16.228516,8.8769531 C 11.630339,8.7542704 7.4961982,10.75616 4.7773438,13.365234 c -2.7188555,2.609074 -4.02340599,5.826155 -3.8789063,9.576172 0.1444988,3.750017 1.7388594,8.032955 4.4394531,10.941406 2.7005946,2.908449 6.5069654,4.440538 9.8730474,6.648438 3.36608,2.207899 6.29096,5.09212 8.324218,7.744141 2.033257,2.652018 3.176075,5.073195 4.185547,6.740234 1.009472,1.667038 1.884891,2.578659 2.576172,3.035156 0.616333,0.407002 1.086452,0.452247 1.539063,0.457031 l 1.255859,-2.359374 -3.330078,-4.986329 4.076172,-4.892578 -5.13086,-6.644531 5.820313,-6.085938 -5.392578,-6.458984 5.080078,-4.265625 -2.148438,-5.074219 C 32.043624,17.836287 32.022179,17.933338 32,18.029297 31.650728,16.518123 31.301945,15.006257 28.595703,13.126953 25.889459,11.247645 20.826693,8.9996348 16.228516,8.8769531 Z" /></g></svg>
